<?xml version="1.0" standalone="no"?>
<!DOCTYPE svg PUBLIC "-//W3C//DTD SVG 20010904//EN"
 "http://www.w3.org/TR/2001/REC-SVG-20010904/DTD/svg10.dtd">
<svg version="1.0" xmlns="http://www.w3.org/2000/svg"
 width="500.000000pt" height="500.000000pt" viewBox="0 0 500.000000 500.000000"
 preserveAspectRatio="xMidYMid meet">
<metadata>
Created by potrace 1.14, written by Peter Selinger 2001-2017
</metadata>
<g transform="translate(0.000000,500.000000) scale(0.100000,-0.100000)"
fill="#000000" stroke="none">
<path d="M2532 2899 c-107 -21 -223 -102 -277 -194 -59 -102 -69 -240 -25
-358 27 -71 108 -162 179 -200 141 -77 335 -67 460 23 84 61 141 187 141 312
l0 58 -195 0 -195 0 0 -75 0 -75 100 0 c55 0 100 -4 100 -9 0 -5 -12 -24 -27
-42 -81 -95 -261 -93 -352 6 -133 144 -32 384 163 385 67 0 119 -17 164 -56
l38 -32 72 41 c40 23 72 45 72 49 0 18 -71 85 -122 116 -54 32 -165 63 -223
61 -16 -1 -49 -5 -73 -10z"/>
<path d="M210 2500 l0 -390 90 0 90 0 0 390 0 390 -90 0 -90 0 0 -390z"/>
<path d="M590 2500 l0 -390 90 0 90 0 2 219 3 218 95 -155 c52 -85 100 -157
106 -159 7 -2 56 69 110 158 l99 163 3 -222 2 -222 90 0 90 0 0 390 0 391 -92
-3 -92 -3 -97 -159 c-53 -87 -101 -162 -106 -167 -4 -4 -55 68 -111 161 l-104
170 -89 0 -89 0 0 -390z"/>
<path d="M1686 2843 c-83 -240 -246 -722 -246 -727 0 -4 44 -5 97 -4 l96 3 20
58 19 58 146 -3 146 -3 16 -55 16 -55 97 -3 c74 -2 97 0 96 10 0 7 -58 182
-128 388 l-128 375 -116 3 -115 3 -16 -48z m177 -305 l45 -138 -89 0 c-49 0
-89 3 -89 6 0 10 83 274 86 271 1 -1 22 -64 47 -139z"/>
<path d="M3110 2500 l0 -390 90 0 90 0 0 390 0 390 -90 0 -90 0 0 -390z"/>
<path d="M3490 2500 l0 -390 85 0 85 0 0 205 c0 113 3 205 8 205 4 -1 72 -93
151 -205 l145 -205 68 0 68 0 0 390 0 390 -90 0 -90 0 -2 -207 -3 -207 -145
204 -145 205 -68 3 -67 3 0 -391z"/>
<path d="M4300 2500 l0 -390 245 0 245 0 0 85 0 85 -155 0 -155 0 0 70 0 70
135 0 135 0 0 85 0 85 -135 0 -135 0 0 65 0 65 150 0 150 0 0 85 0 85 -240 0
-240 0 0 -390z"/>
</g>
</svg>
